<?xml version="1.0" encoding="UTF-8"?><svg xmlns="http://www.w3.org/2000/svg" xmlns:xlink="http://www.w3.org/1999/xlink" fill-opacity="1" color-rendering="auto" color-interpolation="auto" text-rendering="auto" stroke="black" stroke-linecap="square" width="533" stroke-miterlimit="10" shape-rendering="auto" stroke-opacity="1" fill="black" stroke-dasharray="none" font-weight="normal" stroke-width="1" height="800" font-family="'Dialog'" font-style="normal" stroke-linejoin="miter" font-size="12px" stroke-dashoffset="0" image-rendering="auto">
  <!--Generated by ySVG 2.5-->
  <defs id="genericDefs"/>
  <g>
    <g fill="white" text-rendering="geometricPrecision" shape-rendering="geometricPrecision" transform="translate(29,15)" stroke="white">
      <rect x="-29" width="533" height="800" y="-15" clip-path="url(#clipPath2)" stroke="none"/>
    </g>
    <g text-rendering="geometricPrecision" shape-rendering="geometricPrecision" transform="matrix(1.4743,0,0,1.4523,32.8927,350)">
      <g clip-path="url(#clipPath3)">
        <svg xmlns:svg="http://www.w3.org/2000/svg" xmlns:sodipodi="http://sodipodi.sourceforge.net/DTD/sodipodi-0.dtd" xmlns:inkscape="http://www.inkscape.org/namespaces/inkscape" xmlns:dc="http://purl.org/dc/elements/1.1/" xmlns:cc="http://web.resource.org/cc/" xmlns:rdf="http://www.w3.org/1999/02/22-rdf-syntax-ns#" opacity="1" writing-mode="lr-tb" stop-color="rgb(0, 0, 0)" shape-rendering="auto" glyph-orientation-horizontal="0deg" color-profile="auto" lighting-color="rgb(255, 255, 255)" color="rgb(0, 0, 0)" font-weight="400" alignment-baseline="auto" font-style="normal" version="1.0" color-interpolation-filters="linearrgb" text-anchor="start" stroke-linecap="butt" color-interpolation="srgb" font-variant="normal" word-spacing="normal" fill-opacity="1" text-rendering="auto" clip-path="none" text-decoration="none" letter-spacing="normal" glyph-orientation-vertical="auto" display="inline" font-size-adjust="none" overflow="hidden" fill="rgb(0, 0, 0)" font-stretch="normal" stroke-dasharray="none" inkscape:version="0.45.1" id="svg1.svg2" stroke-miterlimit="4" stop-opacity="1" color-rendering="auto" font-size="12" sodipodi:docbase="C:\Daten\alberts\projects\yfx" pointer-events="visiblepainted" mask="none" direction="ltr" baseline-shift="baseline" sodipodi:docname="uml_actor.svg" enable-background="accumulate" fill-rule="nonzero" image-rendering="auto" stroke-dashoffset="0" inkscape:output_extension="org.inkscape.output.svg.inkscape" marker-end="none" width="41" clip="auto" cursor="auto" stroke="none" filter="none" visibility="visible" kerning="auto" stroke-width="1" font-family="&quot;Arial&quot;,&quot;Helvetica&quot;,sans-serif" flood-opacity="1" clip-rule="nonzero" src="none" height="68.997391" unicode-bidi="normal" sodipodi:version="0.32" stroke-linejoin="miter" stroke-opacity="1" flood-color="rgb(0, 0, 0)" dominant-baseline="auto" marker-start="none" marker-mid="none">
            
          <defs id="svg1.defs4">
            <clipPath clipPathUnits="userSpaceOnUse" id="clipPath1">
              <path d="M0 0 L533 0 L533 800 L0 800 L0 0 Z"/>
            </clipPath>
            <clipPath clipPathUnits="userSpaceOnUse" id="clipPath2">
              <path d="M-29 -15 L504 -15 L504 785 L-29 785 L-29 -15 Z"/>
            </clipPath>
            <clipPath clipPathUnits="userSpaceOnUse" id="clipPath3">
              <path d="M-22.3106 -240.9957 L339.215 -240.9957 L339.215 309.8516 L-22.3106 309.8516 L-22.3106 -240.9957 Z"/>
            </clipPath>
          </defs>
            
  
          <metadata id="svg1.metadata7">
    
  </metadata>
            
          <g inkscape:groupmode="layer" id="svg1.layer1" transform="translate(-29.5,-42.959476)" inkscape:label="Ebene 1">
                
            <a id="svg1.a3142" transform="matrix(1.0873906,0,0,1,-4.4741999,0)">
                    
              <path transform="translate(11.586889,5.2908993)" style="fill:none;fill-rule:evenodd;stroke:#000000;stroke-width:1px;stroke-linecap:butt;stroke-linejoin:miter;stroke-opacity:1" sodipodi:cx="38.509369" sodipodi:cy="47.36993" sodipodi:rx="8.5197716" id="svg1.path2160" d="M 47.02914 47.36993 A 8.5197716 9.2013531 0 1 1  29.989597,47.36993 A 8.5197716 9.2013531 0 1 1  47.02914 47.36993 z" sodipodi:ry="9.2013531" sodipodi:type="arc"/>
                  
            </a>
                
            <path style="fill:none" sodipodi:cx="43.962021" sodipodi:cy="48.392303" d="M 47.71072 48.392303 A 3.7486994 0 0 1 1  40.213321,48.392303 A 3.7486994 0 0 1 1  47.71072 48.392303 z" id="svg1.path3134" sodipodi:rx="3.7486994" sodipodi:ry="0" sodipodi:type="arc"/>
                
            <path style="fill:none;fill-rule:evenodd;stroke:#000000;stroke-width:1.24319649px;stroke-linecap:butt;stroke-linejoin:miter;stroke-opacity:1" d="M 50,61.33709 C 50,91.363211 50,92.247838 50,92.247838" id="svg1.path3136"/>
                
            <path style="fill:none;fill-rule:evenodd;stroke:#000000;stroke-width:1px;stroke-linecap:butt;stroke-linejoin:miter;stroke-opacity:1" d="M 69.760668,72.362183 C 69.760668,72.362183 69.760668,72.362183 50.239332,72.362183 C 30.239332,72.362183 30.239332,72.362183 30.239332,72.362183 L 30.239332,72.362183" id="svg1.path3138"/>
                
            <path style="fill:none;fill-rule:evenodd;stroke:#000000;stroke-width:1px;stroke-linecap:butt;stroke-linejoin:miter;stroke-opacity:1" d="M 30,111.45687 C 30,111.45687 30,111.45687 50,92.013532 C 70,111.45687 70,111.45687 70,111.45687" id="svg1.path3140"/>
              
          </g>
          
        </svg>
      </g>
    </g>
    <g font-size="13px" stroke-linecap="butt" transform="matrix(1,0,0,1,29,15)" text-rendering="geometricPrecision" font-family="sans-serif" shape-rendering="geometricPrecision" stroke-miterlimit="1.45">
      <text x="-11.9839" xml:space="preserve" y="453.0669" clip-path="url(#clipPath2)" stroke="none">User/Operator</text>
    </g>
    <g font-size="13px" stroke-linecap="butt" transform="matrix(1,0,0,1,29,15)" text-rendering="geometricPrecision" font-family="sans-serif" shape-rendering="geometricPrecision" stroke-miterlimit="1.45">
      <text x="0.8955" xml:space="preserve" y="468.1997" clip-path="url(#clipPath2)" stroke="none">Other App</text>
      <text x="-10.6445" xml:space="preserve" y="483.3325" clip-path="url(#clipPath2)" stroke="none">Other System</text>
    </g>
    <g fill="rgb(255,204,0)" text-rendering="geometricPrecision" shape-rendering="geometricPrecision" transform="matrix(1,0,0,1,29,15)" stroke="rgb(255,204,0)">
      <ellipse rx="55" ry="25" clip-path="url(#clipPath2)" cx="293.2319" cy="545" stroke="none"/>
    </g>
    <g font-size="13px" stroke-linecap="butt" transform="matrix(1,0,0,1,29,15)" text-rendering="geometricPrecision" font-family="sans-serif" shape-rendering="geometricPrecision" stroke-miterlimit="1.45">
      <text x="269.8503" xml:space="preserve" y="549.5005" clip-path="url(#clipPath2)" stroke="none">Driving</text>
      <ellipse rx="55" fill="none" ry="25" clip-path="url(#clipPath2)" cx="293.2319" cy="545"/>
    </g>
    <g fill="rgb(255,204,0)" text-rendering="geometricPrecision" shape-rendering="geometricPrecision" transform="matrix(1,0,0,1,29,15)" stroke="rgb(255,204,0)">
      <ellipse rx="55" ry="25" clip-path="url(#clipPath2)" cx="293.2319" cy="705" stroke="none"/>
    </g>
    <g font-size="13px" stroke-linecap="butt" transform="matrix(1,0,0,1,29,15)" text-rendering="geometricPrecision" font-family="sans-serif" shape-rendering="geometricPrecision" stroke-miterlimit="1.45">
      <text x="253.5146" xml:space="preserve" y="709.5005" clip-path="url(#clipPath2)" stroke="none">Use Camera</text>
      <ellipse rx="55" fill="none" ry="25" clip-path="url(#clipPath2)" cx="293.2319" cy="705"/>
    </g>
    <g fill="rgb(255,204,0)" text-rendering="geometricPrecision" shape-rendering="geometricPrecision" transform="matrix(1,0,0,1,29,15)" stroke="rgb(255,204,0)">
      <ellipse rx="55" ry="25" clip-path="url(#clipPath2)" cx="433.2319" cy="745" stroke="none"/>
    </g>
    <g font-size="13px" stroke-linecap="butt" transform="matrix(1,0,0,1,29,15)" text-rendering="geometricPrecision" font-family="sans-serif" shape-rendering="geometricPrecision" stroke-miterlimit="1.45">
      <text x="417.3533" xml:space="preserve" y="741.9341" clip-path="url(#clipPath2)" stroke="none">Start</text>
      <text x="399.5386" xml:space="preserve" y="757.0669" clip-path="url(#clipPath2)" stroke="none">Live Video</text>
      <ellipse rx="55" fill="none" ry="25" clip-path="url(#clipPath2)" cx="433.2319" cy="745"/>
    </g>
    <g fill="rgb(255,204,0)" text-rendering="geometricPrecision" shape-rendering="geometricPrecision" transform="matrix(1,0,0,1,29,15)" stroke="rgb(255,204,0)">
      <ellipse rx="55" ry="25" clip-path="url(#clipPath2)" cx="433.2319" cy="105" stroke="none"/>
    </g>
    <g font-size="13px" stroke-linecap="butt" transform="matrix(1,0,0,1,29,15)" text-rendering="geometricPrecision" font-family="sans-serif" shape-rendering="geometricPrecision" stroke-miterlimit="1.45">
      <text x="407.7239" xml:space="preserve" y="101.9341" clip-path="url(#clipPath2)" stroke="none">Camera</text>
      <text x="409.5933" xml:space="preserve" y="117.0669" clip-path="url(#clipPath2)" stroke="none">Control</text>
      <ellipse rx="55" fill="none" ry="25" clip-path="url(#clipPath2)" cx="433.2319" cy="105"/>
    </g>
    <g fill="rgb(255,204,0)" text-rendering="geometricPrecision" shape-rendering="geometricPrecision" transform="matrix(1,0,0,1,29,15)" stroke="rgb(255,204,0)">
      <ellipse rx="55" ry="25" clip-path="url(#clipPath2)" cx="433.2319" cy="585" stroke="none"/>
    </g>
    <g font-size="13px" stroke-linecap="butt" transform="matrix(1,0,0,1,29,15)" text-rendering="geometricPrecision" font-family="sans-serif" shape-rendering="geometricPrecision" stroke-miterlimit="1.45">
      <text x="409.7488" xml:space="preserve" y="589.5005" clip-path="url(#clipPath2)" stroke="none">Moving</text>
      <ellipse rx="55" fill="none" ry="25" clip-path="url(#clipPath2)" cx="433.2319" cy="585"/>
    </g>
    <g fill="rgb(255,204,0)" text-rendering="geometricPrecision" shape-rendering="geometricPrecision" transform="matrix(1,0,0,1,29,15)" stroke="rgb(255,204,0)">
      <ellipse rx="55" ry="25" clip-path="url(#clipPath2)" cx="433.2319" cy="505" stroke="none"/>
    </g>
    <g font-size="13px" stroke-linecap="butt" transform="matrix(1,0,0,1,29,15)" text-rendering="geometricPrecision" font-family="sans-serif" shape-rendering="geometricPrecision" stroke-miterlimit="1.45">
      <text x="408.2983" xml:space="preserve" y="509.5005" clip-path="url(#clipPath2)" stroke="none">Turning</text>
      <ellipse rx="55" fill="none" ry="25" clip-path="url(#clipPath2)" cx="433.2319" cy="505"/>
    </g>
    <g fill="rgb(255,204,0)" text-rendering="geometricPrecision" shape-rendering="geometricPrecision" transform="matrix(1,0,0,1,29,15)" stroke="rgb(255,204,0)">
      <ellipse rx="55" ry="25" clip-path="url(#clipPath2)" cx="433.2319" cy="25" stroke="none"/>
    </g>
    <g font-size="13px" stroke-linecap="butt" transform="matrix(1,0,0,1,29,15)" text-rendering="geometricPrecision" font-family="sans-serif" shape-rendering="geometricPrecision" stroke-miterlimit="1.45">
      <text x="409.8503" xml:space="preserve" y="21.9341" clip-path="url(#clipPath2)" stroke="none">Driving</text>
      <text x="409.5933" xml:space="preserve" y="37.0669" clip-path="url(#clipPath2)" stroke="none">Control</text>
      <ellipse rx="55" fill="none" ry="25" clip-path="url(#clipPath2)" cx="433.2319" cy="25"/>
    </g>
    <g fill="rgb(255,204,0)" text-rendering="geometricPrecision" shape-rendering="geometricPrecision" transform="matrix(1,0,0,1,29,15)" stroke="rgb(255,204,0)">
      <ellipse rx="55" ry="25" clip-path="url(#clipPath2)" cx="223.2319" cy="385" stroke="none"/>
    </g>
    <g font-size="13px" stroke-linecap="butt" transform="matrix(1,0,0,1,29,15)" text-rendering="geometricPrecision" font-family="sans-serif" shape-rendering="geometricPrecision" stroke-miterlimit="1.45">
      <text x="188.4722" xml:space="preserve" y="389.5005" clip-path="url(#clipPath2)" stroke="none">Monitoring</text>
      <ellipse rx="55" fill="none" ry="25" clip-path="url(#clipPath2)" cx="223.2319" cy="385"/>
    </g>
    <g fill="rgb(255,204,0)" text-rendering="geometricPrecision" shape-rendering="geometricPrecision" transform="matrix(1,0,0,1,29,15)" stroke="rgb(255,204,0)">
      <ellipse rx="55" ry="25" clip-path="url(#clipPath2)" cx="363.2319" cy="425" stroke="none"/>
    </g>
    <g font-size="13px" stroke-linecap="butt" transform="matrix(1,0,0,1,29,15)" text-rendering="geometricPrecision" font-family="sans-serif" shape-rendering="geometricPrecision" stroke-miterlimit="1.45">
      <text x="353.9897" xml:space="preserve" y="421.9341" clip-path="url(#clipPath2)" stroke="none">OS</text>
      <text x="328.4722" xml:space="preserve" y="437.0669" clip-path="url(#clipPath2)" stroke="none">Monitoring</text>
      <ellipse rx="55" fill="none" ry="25" clip-path="url(#clipPath2)" cx="363.2319" cy="425"/>
    </g>
    <g fill="rgb(255,204,0)" text-rendering="geometricPrecision" shape-rendering="geometricPrecision" transform="matrix(1,0,0,1,29,15)" stroke="rgb(255,204,0)">
      <ellipse rx="55" ry="25" clip-path="url(#clipPath2)" cx="363.2319" cy="345" stroke="none"/>
    </g>
    <g font-size="13px" stroke-linecap="butt" transform="matrix(1,0,0,1,29,15)" text-rendering="geometricPrecision" font-family="sans-serif" shape-rendering="geometricPrecision" stroke-miterlimit="1.45">
      <text x="350.3811" xml:space="preserve" y="341.9341" clip-path="url(#clipPath2)" stroke="none">Dev</text>
      <text x="328.4722" xml:space="preserve" y="357.0669" clip-path="url(#clipPath2)" stroke="none">Monitoring</text>
      <ellipse rx="55" fill="none" ry="25" clip-path="url(#clipPath2)" cx="363.2319" cy="345"/>
    </g>
    <g fill="rgb(255,204,0)" text-rendering="geometricPrecision" shape-rendering="geometricPrecision" transform="matrix(1,0,0,1,29,15)" stroke="rgb(255,204,0)">
      <ellipse rx="55" ry="25" clip-path="url(#clipPath2)" cx="293.2319" cy="65" stroke="none"/>
    </g>
    <g font-size="13px" stroke-linecap="butt" transform="matrix(1,0,0,1,29,15)" text-rendering="geometricPrecision" font-family="sans-serif" shape-rendering="geometricPrecision" stroke-miterlimit="1.45">
      <text x="253.7686" xml:space="preserve" y="69.5005" clip-path="url(#clipPath2)" stroke="none">ROS Control</text>
      <ellipse rx="55" fill="none" ry="25" clip-path="url(#clipPath2)" cx="293.2319" cy="65"/>
    </g>
    <g fill="rgb(255,204,0)" text-rendering="geometricPrecision" shape-rendering="geometricPrecision" transform="matrix(1,0,0,1,29,15)" stroke="rgb(255,204,0)">
      <ellipse rx="55" ry="25" clip-path="url(#clipPath2)" cx="293.2319" cy="225" stroke="none"/>
    </g>
    <g font-size="13px" stroke-linecap="butt" transform="matrix(1,0,0,1,29,15)" text-rendering="geometricPrecision" font-family="sans-serif" shape-rendering="geometricPrecision" stroke-miterlimit="1.45">
      <text x="258.2849" xml:space="preserve" y="229.5005" clip-path="url(#clipPath2)" stroke="none">OS Control</text>
      <ellipse rx="55" fill="none" ry="25" clip-path="url(#clipPath2)" cx="293.2319" cy="225"/>
    </g>
    <g fill="rgb(255,204,0)" text-rendering="geometricPrecision" shape-rendering="geometricPrecision" transform="matrix(1,0,0,1,29,15)" stroke="rgb(255,204,0)">
      <ellipse rx="55" ry="25" clip-path="url(#clipPath2)" cx="153.2319" cy="145" stroke="none"/>
    </g>
    <g font-size="13px" stroke-linecap="butt" transform="matrix(1,0,0,1,29,15)" text-rendering="geometricPrecision" font-family="sans-serif" shape-rendering="geometricPrecision" stroke-miterlimit="1.45">
      <text x="114.6763" xml:space="preserve" y="149.5005" clip-path="url(#clipPath2)" stroke="none">Dev Control</text>
      <ellipse rx="55" fill="none" ry="25" clip-path="url(#clipPath2)" cx="153.2319" cy="145"/>
    </g>
    <g fill="rgb(255,204,0)" text-rendering="geometricPrecision" shape-rendering="geometricPrecision" transform="matrix(1,0,0,1,29,15)" stroke="rgb(255,204,0)">
      <ellipse rx="55" ry="25" clip-path="url(#clipPath2)" cx="153.2319" cy="625" stroke="none"/>
    </g>
    <g font-size="13px" stroke-linecap="butt" transform="matrix(1,0,0,1,29,15)" text-rendering="geometricPrecision" font-family="sans-serif" shape-rendering="geometricPrecision" stroke-miterlimit="1.45">
      <text x="126.1719" xml:space="preserve" y="629.5005" clip-path="url(#clipPath2)" stroke="none">Use Dev</text>
      <ellipse rx="55" fill="none" ry="25" clip-path="url(#clipPath2)" cx="153.2319" cy="625"/>
    </g>
    <g fill="rgb(255,204,0)" text-rendering="geometricPrecision" shape-rendering="geometricPrecision" transform="matrix(1,0,0,1,29,15)" stroke="rgb(255,204,0)">
      <ellipse rx="55" ry="25" clip-path="url(#clipPath2)" cx="433.2319" cy="665" stroke="none"/>
    </g>
    <g font-size="13px" stroke-linecap="butt" transform="matrix(1,0,0,1,29,15)" text-rendering="geometricPrecision" font-family="sans-serif" shape-rendering="geometricPrecision" stroke-miterlimit="1.45">
      <text x="403.7693" xml:space="preserve" y="669.5005" clip-path="url(#clipPath2)" stroke="none">Calibrate</text>
      <ellipse rx="55" fill="none" ry="25" clip-path="url(#clipPath2)" cx="433.2319" cy="665"/>
    </g>
    <g fill="rgb(255,204,0)" text-rendering="geometricPrecision" shape-rendering="geometricPrecision" transform="matrix(1,0,0,1,29,15)" stroke="rgb(255,204,0)">
      <ellipse rx="55" ry="25" clip-path="url(#clipPath2)" cx="433.2319" cy="265" stroke="none"/>
    </g>
    <g font-size="13px" stroke-linecap="butt" transform="matrix(1,0,0,1,29,15)" text-rendering="geometricPrecision" font-family="sans-serif" shape-rendering="geometricPrecision" stroke-miterlimit="1.45">
      <text x="409.5774" xml:space="preserve" y="269.5005" clip-path="url(#clipPath2)" stroke="none">Restart</text>
      <ellipse rx="55" fill="none" ry="25" clip-path="url(#clipPath2)" cx="433.2319" cy="265"/>
    </g>
    <g fill="rgb(255,204,0)" text-rendering="geometricPrecision" shape-rendering="geometricPrecision" transform="matrix(1,0,0,1,29,15)" stroke="rgb(255,204,0)">
      <ellipse rx="55" ry="25" clip-path="url(#clipPath2)" cx="433.2319" cy="185" stroke="none"/>
    </g>
    <g font-size="13px" stroke-linecap="butt" transform="matrix(1,0,0,1,29,15)" text-rendering="geometricPrecision" font-family="sans-serif" shape-rendering="geometricPrecision" stroke-miterlimit="1.45">
      <text x="400.7795" xml:space="preserve" y="189.5005" clip-path="url(#clipPath2)" stroke="none">Shutdown</text>
      <ellipse rx="55" fill="none" ry="25" clip-path="url(#clipPath2)" cx="433.2319" cy="185"/>
      <path fill="none" stroke-dasharray="6,2" d="M348.2319 705 L363.2319 705 L363.2319 745 L373.2319 745" clip-path="url(#clipPath2)"/>
      <path stroke-dasharray="6,2" d="M377.2319 745 L365.2319 739 L377.2319 745 L365.2319 751 Z" clip-path="url(#clipPath2)" stroke="none"/>
    </g>
    <g text-rendering="geometricPrecision" shape-rendering="geometricPrecision" transform="matrix(1,0,0,1,29,15)">
      <path fill="none" d="M377.2319 745 L365.2319 739 L377.2319 745 L365.2319 751 Z" clip-path="url(#clipPath2)"/>
      <path fill="none" stroke-miterlimit="1.45" stroke-dasharray="6,2" d="M348.2319 545 L363.2319 545 L363.2319 585 L373.2319 585" clip-path="url(#clipPath2)" stroke-linecap="butt"/>
      <path stroke-miterlimit="1.45" stroke-dasharray="6,2" d="M377.2319 585 L365.2319 579 L377.2319 585 L365.2319 591 Z" clip-path="url(#clipPath2)" stroke-linecap="butt" stroke="none"/>
      <path fill="none" d="M377.2319 585 L365.2319 579 L377.2319 585 L365.2319 591 Z" clip-path="url(#clipPath2)"/>
      <path fill="none" stroke-miterlimit="1.45" stroke-dasharray="6,2" d="M348.2319 545 L363.2319 545 L363.2319 505 L373.2319 505" clip-path="url(#clipPath2)" stroke-linecap="butt"/>
      <path stroke-miterlimit="1.45" stroke-dasharray="6,2" d="M377.2319 505 L365.2319 499 L377.2319 505 L365.2319 511 Z" clip-path="url(#clipPath2)" stroke-linecap="butt" stroke="none"/>
      <path fill="none" d="M377.2319 505 L365.2319 499 L377.2319 505 L365.2319 511 Z" clip-path="url(#clipPath2)"/>
      <path fill="none" stroke-miterlimit="1.45" d="M64.0809 385 L168.2319 385" clip-path="url(#clipPath2)" stroke-linecap="butt"/>
      <path fill="none" stroke-miterlimit="1.45" stroke-dasharray="6,2" d="M278.2319 385 L293.2319 385 L293.2319 425 L303.2319 425" clip-path="url(#clipPath2)" stroke-linecap="butt"/>
      <path stroke-miterlimit="1.45" stroke-dasharray="6,2" d="M307.2319 425 L295.2319 419 L307.2319 425 L295.2319 431 Z" clip-path="url(#clipPath2)" stroke-linecap="butt" stroke="none"/>
      <path fill="none" d="M307.2319 425 L295.2319 419 L307.2319 425 L295.2319 431 Z" clip-path="url(#clipPath2)"/>
      <path fill="none" stroke-miterlimit="1.45" stroke-dasharray="6,2" d="M278.2319 385 L293.2319 385 L293.2319 345 L303.2319 345" clip-path="url(#clipPath2)" stroke-linecap="butt"/>
      <path stroke-miterlimit="1.45" stroke-dasharray="6,2" d="M307.2319 345 L295.2319 339 L307.2319 345 L295.2319 351 Z" clip-path="url(#clipPath2)" stroke-linecap="butt" stroke="none"/>
      <path fill="none" d="M307.2319 345 L295.2319 339 L307.2319 345 L295.2319 351 Z" clip-path="url(#clipPath2)"/>
      <path fill="none" stroke-miterlimit="1.45" stroke-dasharray="6,2" d="M348.2319 65 L363.2319 65 L363.2319 105 L373.2319 105" clip-path="url(#clipPath2)" stroke-linecap="butt"/>
      <path stroke-miterlimit="1.45" stroke-dasharray="6,2" d="M377.2319 105 L365.2319 99 L377.2319 105 L365.2319 111 Z" clip-path="url(#clipPath2)" stroke-linecap="butt" stroke="none"/>
      <path fill="none" d="M377.2319 105 L365.2319 99 L377.2319 105 L365.2319 111 Z" clip-path="url(#clipPath2)"/>
      <path fill="none" stroke-miterlimit="1.45" stroke-dasharray="6,2" d="M348.2319 65 L363.2319 65 L363.2319 25 L373.2319 25" clip-path="url(#clipPath2)" stroke-linecap="butt"/>
      <path stroke-miterlimit="1.45" stroke-dasharray="6,2" d="M377.2319 25 L365.2319 19 L377.2319 25 L365.2319 31 Z" clip-path="url(#clipPath2)" stroke-linecap="butt" stroke="none"/>
      <path fill="none" d="M377.2319 25 L365.2319 19 L377.2319 25 L365.2319 31 Z" clip-path="url(#clipPath2)"/>
      <path fill="none" stroke-miterlimit="1.45" d="M64.094 385 L83.2319 385 L83.2319 145 L98.2319 145" clip-path="url(#clipPath2)" stroke-linecap="butt"/>
      <path fill="none" stroke-miterlimit="1.45" stroke-dasharray="6,2" d="M208.2319 145 L223.2319 145 L223.2319 225 L233.2319 225" clip-path="url(#clipPath2)" stroke-linecap="butt"/>
      <path stroke-miterlimit="1.45" stroke-dasharray="6,2" d="M237.2319 225 L225.2319 219 L237.2319 225 L225.2319 231 Z" clip-path="url(#clipPath2)" stroke-linecap="butt" stroke="none"/>
      <path fill="none" d="M237.2319 225 L225.2319 219 L237.2319 225 L225.2319 231 Z" clip-path="url(#clipPath2)"/>
      <path fill="none" stroke-miterlimit="1.45" stroke-dasharray="6,2" d="M208.2319 145 L223.2319 145 L223.2319 65 L233.2319 65" clip-path="url(#clipPath2)" stroke-linecap="butt"/>
      <path stroke-miterlimit="1.45" stroke-dasharray="6,2" d="M237.2319 65 L225.2319 59 L237.2319 65 L225.2319 71 Z" clip-path="url(#clipPath2)" stroke-linecap="butt" stroke="none"/>
      <path fill="none" d="M237.2319 65 L225.2319 59 L237.2319 65 L225.2319 71 Z" clip-path="url(#clipPath2)"/>
      <path fill="none" stroke-miterlimit="1.45" d="M64.094 385 L83.2319 385 L83.2319 625 L98.2319 625" clip-path="url(#clipPath2)" stroke-linecap="butt"/>
      <path fill="none" stroke-miterlimit="1.45" stroke-dasharray="6,2" d="M208.2319 625 L223.2319 625 L223.2319 705 L233.2319 705" clip-path="url(#clipPath2)" stroke-linecap="butt"/>
      <path stroke-miterlimit="1.45" stroke-dasharray="6,2" d="M237.2319 705 L225.2319 699 L237.2319 705 L225.2319 711 Z" clip-path="url(#clipPath2)" stroke-linecap="butt" stroke="none"/>
      <path fill="none" d="M237.2319 705 L225.2319 699 L237.2319 705 L225.2319 711 Z" clip-path="url(#clipPath2)"/>
      <path fill="none" stroke-miterlimit="1.45" stroke-dasharray="6,2" d="M208.2319 625 L223.2319 625 L223.2319 545 L233.2319 545" clip-path="url(#clipPath2)" stroke-linecap="butt"/>
      <path stroke-miterlimit="1.45" stroke-dasharray="6,2" d="M237.2319 545 L225.2319 539 L237.2319 545 L225.2319 551 Z" clip-path="url(#clipPath2)" stroke-linecap="butt" stroke="none"/>
      <path fill="none" d="M237.2319 545 L225.2319 539 L237.2319 545 L225.2319 551 Z" clip-path="url(#clipPath2)"/>
      <path fill="none" stroke-miterlimit="1.45" stroke-dasharray="6,2" d="M348.2319 705 L363.2319 705 L363.2319 665 L373.2319 665" clip-path="url(#clipPath2)" stroke-linecap="butt"/>
      <path stroke-miterlimit="1.45" stroke-dasharray="6,2" d="M377.2319 665 L365.2319 659 L377.2319 665 L365.2319 671 Z" clip-path="url(#clipPath2)" stroke-linecap="butt" stroke="none"/>
      <path fill="none" d="M377.2319 665 L365.2319 659 L377.2319 665 L365.2319 671 Z" clip-path="url(#clipPath2)"/>
      <path fill="none" stroke-miterlimit="1.45" stroke-dasharray="6,2" d="M348.2319 225 L363.2319 225 L363.2319 265 L373.2319 265" clip-path="url(#clipPath2)" stroke-linecap="butt"/>
      <path stroke-miterlimit="1.45" stroke-dasharray="6,2" d="M377.2319 265 L365.2319 259 L377.2319 265 L365.2319 271 Z" clip-path="url(#clipPath2)" stroke-linecap="butt" stroke="none"/>
      <path fill="none" d="M377.2319 265 L365.2319 259 L377.2319 265 L365.2319 271 Z" clip-path="url(#clipPath2)"/>
      <path fill="none" stroke-miterlimit="1.45" stroke-dasharray="6,2" d="M348.2319 225 L363.2319 225 L363.2319 185 L373.2319 185" clip-path="url(#clipPath2)" stroke-linecap="butt"/>
      <path stroke-miterlimit="1.45" stroke-dasharray="6,2" d="M377.2319 185 L365.2319 179 L377.2319 185 L365.2319 191 Z" clip-path="url(#clipPath2)" stroke-linecap="butt" stroke="none"/>
      <path fill="none" d="M377.2319 185 L365.2319 179 L377.2319 185 L365.2319 191 Z" clip-path="url(#clipPath2)"/>
    </g>
  </g>
</svg>
