<?xml version="1.0" encoding="UTF-8"?><svg xmlns="http://www.w3.org/2000/svg" xmlns:xlink="http://www.w3.org/1999/xlink" fill-opacity="1" color-rendering="auto" color-interpolation="auto" text-rendering="auto" stroke="black" stroke-linecap="square" width="629" stroke-miterlimit="10" shape-rendering="auto" stroke-opacity="1" fill="black" stroke-dasharray="none" font-weight="normal" stroke-width="1" height="269" font-family="'Dialog'" font-style="normal" stroke-linejoin="miter" font-size="12px" stroke-dashoffset="0" image-rendering="auto">
  <!--Generated by ySVG 2.5-->
  <defs id="genericDefs"/>
  <g>
    <defs id="defs1">
      <linearGradient x1="-1079.4626" gradientUnits="userSpaceOnUse" x2="-679.4626" y1="577.2114" y2="617.2114" id="linearGradient1" spreadMethod="reflect">
        <stop stop-opacity="1" stop-color="rgb(153,204,255)" offset="0%"/>
        <stop stop-opacity="1" stop-color="rgb(153,204,255)" offset="100%"/>
      </linearGradient>
      <linearGradient x1="-1079.4626" gradientUnits="userSpaceOnUse" x2="-679.4626" y1="617.2114" y2="657.2114" id="linearGradient2" spreadMethod="reflect">
        <stop stop-opacity="1" stop-color="rgb(204,255,255)" offset="0%"/>
        <stop stop-opacity="1" stop-color="rgb(204,255,255)" offset="100%"/>
      </linearGradient>
      <linearGradient x1="-1159.4626" gradientUnits="userSpaceOnUse" x2="-1079.4626" y1="617.2114" y2="657.2114" id="linearGradient3" spreadMethod="reflect">
        <stop stop-opacity="1" stop-color="rgb(204,255,255)" offset="0%"/>
        <stop stop-opacity="1" stop-color="rgb(204,255,255)" offset="100%"/>
      </linearGradient>
      <clipPath clipPathUnits="userSpaceOnUse" id="clipPath1">
        <path d="M0 0 L629 0 L629 269 L0 269 L0 0 Z"/>
      </clipPath>
      <clipPath clipPathUnits="userSpaceOnUse" id="clipPath2">
        <path d="M-1264 535 L-635 535 L-635 804 L-1264 804 L-1264 535 Z"/>
      </clipPath>
      <clipPath clipPathUnits="userSpaceOnUse" id="clipPath3">
        <path d="M153.311 -19.9715 L153.311 609.0284 L-115.689 609.0284 L-115.689 -19.9715 L153.311 -19.9715 Z"/>
      </clipPath>
    </defs>
    <g fill="white" text-rendering="geometricPrecision" shape-rendering="geometricPrecision" transform="translate(1264,-535)" stroke="white">
      <rect x="-1264" width="629" height="269" y="535" clip-path="url(#clipPath2)" stroke="none"/>
    </g>
    <g fill="rgb(255,242,188)" text-rendering="geometricPrecision" shape-rendering="geometricPrecision" transform="matrix(1,0,0,1,1264,-535)" stroke="rgb(255,242,188)">
      <path d="M-1248.0284 550.1427 L-1248.0284 788.6414 L-1218.0284 788.6414 L-1218.0284 550.1427 Z" stroke="none" clip-path="url(#clipPath2)"/>
      <rect x="-1218.0285" width="567.5795" height="238.4987" y="550.1427" clip-path="url(#clipPath2)" stroke="none"/>
      <rect x="-1218.0285" y="550.1427" clip-path="url(#clipPath2)" fill="white" width="567.5795" height="238.4987" stroke="none"/>
    </g>
    <g text-rendering="geometricPrecision" stroke-miterlimit="1.45" shape-rendering="geometricPrecision" transform="matrix(1,0,0,1,1264,-535)" stroke-linecap="butt">
      <rect fill="none" x="-1248.0285" width="597.5795" height="238.4987" y="550.1427" clip-path="url(#clipPath2)"/>
    </g>
    <g font-size="15px" stroke-linecap="butt" transform="matrix(-0,-1,1,-0,19.9715,153.311)" text-rendering="geometricPrecision" font-family="sans-serif" shape-rendering="geometricPrecision" stroke-miterlimit="1.45">
      <text x="2" xml:space="preserve" y="15.9233" clip-path="url(#clipPath3)" stroke="none">RCM</text>
    </g>
    <g text-rendering="geometricPrecision" stroke-miterlimit="1.45" shape-rendering="geometricPrecision" transform="matrix(1,0,0,1,1264,-535)" stroke-linecap="butt">
      <rect fill="none" x="-1218.0285" width="567.5795" height="238.4987" y="550.1427" clip-path="url(#clipPath2)"/>
      <rect fill="none" x="-1218.0285" width="567.5795" height="238.4987" y="550.1427" clip-path="url(#clipPath2)"/>
    </g>
    <g font-size="15px" stroke-linecap="butt" transform="matrix(-0,-1,1,-0,19.9715,153.311)" text-rendering="geometricPrecision" font-family="sans-serif" shape-rendering="geometricPrecision" stroke-miterlimit="1.45">
      <text x="2" xml:space="preserve" y="15.9233" clip-path="url(#clipPath3)" stroke="none">RCM</text>
    </g>
    <g fill="rgb(204,255,255)" text-rendering="geometricPrecision" shape-rendering="geometricPrecision" transform="matrix(1,0,0,1,1264,-535)" stroke="rgb(204,255,255)">
      <rect x="-1039.4626" width="120" height="30" y="732.9242" clip-path="url(#clipPath2)" stroke="none"/>
    </g>
    <g text-rendering="geometricPrecision" stroke-miterlimit="1.45" shape-rendering="geometricPrecision" transform="matrix(1,0,0,1,1264,-535)" stroke-linecap="butt">
      <rect fill="none" x="-1039.4626" width="120" height="30" y="732.9242" clip-path="url(#clipPath2)"/>
      <text x="-1005.3318" xml:space="preserve" y="752.0785" clip-path="url(#clipPath2)" font-family="sans-serif" stroke="none">TotalLen</text>
    </g>
    <g fill="url(#linearGradient1)" text-rendering="geometricPrecision" shape-rendering="geometricPrecision" transform="matrix(1,0,0,1,1264,-535)" stroke="url(#linearGradient1)">
      <path d="M-1079.4626 577.2114 L-679.4626 577.2114 L-679.4626 617.2114 L-1079.4626 617.2114 Z" stroke="none" clip-path="url(#clipPath2)"/>
    </g>
    <g text-rendering="geometricPrecision" stroke-miterlimit="1.45" shape-rendering="geometricPrecision" transform="matrix(1,0,0,1,1264,-535)" stroke-linecap="butt">
      <path fill="none" d="M-1079.4626 577.2114 L-679.4626 577.2114 L-679.4626 617.2114 L-1079.4626 617.2114 Z" clip-path="url(#clipPath2)"/>
      <text x="-922.614" xml:space="preserve" y="601.3657" clip-path="url(#clipPath2)" font-family="sans-serif" stroke="none">RCM Signaling</text>
    </g>
    <g fill="silver" text-rendering="geometricPrecision" shape-rendering="geometricPrecision" transform="matrix(1,0,0,1,1264,-535)" stroke="silver">
      <rect x="-1039.4626" width="120" height="30" y="702.9242" clip-path="url(#clipPath2)" stroke="none"/>
    </g>
    <g text-rendering="geometricPrecision" stroke-miterlimit="1.45" shape-rendering="geometricPrecision" transform="matrix(1,0,0,1,1264,-535)" stroke-linecap="butt">
      <rect fill="none" x="-1039.4626" width="120" height="30" y="702.9242" clip-path="url(#clipPath2)"/>
      <text x="-1000.1169" xml:space="preserve" y="722.0785" clip-path="url(#clipPath2)" font-family="sans-serif" stroke="none">2Bytes</text>
    </g>
    <g fill="rgb(204,255,255)" text-rendering="geometricPrecision" shape-rendering="geometricPrecision" transform="matrix(1,0,0,1,1264,-535)" stroke="rgb(204,255,255)">
      <rect x="-1099.4626" width="60" height="30" y="732.9242" clip-path="url(#clipPath2)" stroke="none"/>
    </g>
    <g text-rendering="geometricPrecision" stroke-miterlimit="1.45" shape-rendering="geometricPrecision" transform="matrix(1,0,0,1,1264,-535)" stroke-linecap="butt">
      <rect fill="none" x="-1099.4626" width="60" height="30" y="732.9242" clip-path="url(#clipPath2)"/>
      <text x="-1080.3083" xml:space="preserve" y="752.0785" clip-path="url(#clipPath2)" font-family="sans-serif" stroke="none">Rsv</text>
    </g>
    <g fill="url(#linearGradient2)" text-rendering="geometricPrecision" shape-rendering="geometricPrecision" transform="matrix(1,0,0,1,1264,-535)" stroke="url(#linearGradient2)">
      <path d="M-1079.4626 617.2114 L-679.4626 617.2114 L-679.4626 657.2114 L-1079.4626 657.2114 Z" stroke="none" clip-path="url(#clipPath2)"/>
    </g>
    <g text-rendering="geometricPrecision" stroke-miterlimit="1.45" shape-rendering="geometricPrecision" transform="matrix(1,0,0,1,1264,-535)" stroke-linecap="butt">
      <path fill="none" d="M-1079.4626 617.2114 L-679.4626 617.2114 L-679.4626 657.2114 L-1079.4626 657.2114 Z" clip-path="url(#clipPath2)"/>
      <text x="-914.0359" xml:space="preserve" y="634.3813" clip-path="url(#clipPath2)" font-family="sans-serif" stroke="none">RCM Frame</text>
      <text x="-903.1316" xml:space="preserve" y="648.3501" clip-path="url(#clipPath2)" font-family="sans-serif" stroke="none">Payload</text>
    </g>
    <g fill="silver" text-rendering="geometricPrecision" shape-rendering="geometricPrecision" transform="matrix(1,0,0,1,1264,-535)" stroke="silver">
      <rect x="-1099.4626" width="60" height="30" y="702.9242" clip-path="url(#clipPath2)" stroke="none"/>
    </g>
    <g text-rendering="geometricPrecision" stroke-miterlimit="1.45" shape-rendering="geometricPrecision" transform="matrix(1,0,0,1,1264,-535)" stroke-linecap="butt">
      <rect fill="none" x="-1099.4626" width="60" height="30" y="702.9242" clip-path="url(#clipPath2)"/>
      <text x="-1077.3962" xml:space="preserve" y="722.0785" clip-path="url(#clipPath2)" font-family="sans-serif" stroke="none">1B</text>
    </g>
    <g fill="rgb(204,255,255)" text-rendering="geometricPrecision" shape-rendering="geometricPrecision" transform="matrix(1,0,0,1,1264,-535)" stroke="rgb(204,255,255)">
      <rect x="-1159.4626" width="60" height="30" y="732.9242" clip-path="url(#clipPath2)" stroke="none"/>
    </g>
    <g text-rendering="geometricPrecision" stroke-miterlimit="1.45" shape-rendering="geometricPrecision" transform="matrix(1,0,0,1,1264,-535)" stroke-linecap="butt">
      <rect fill="none" x="-1159.4626" width="60" height="30" y="732.9242" clip-path="url(#clipPath2)"/>
      <text x="-1156.7234" xml:space="preserve" y="752.0785" clip-path="url(#clipPath2)" font-family="sans-serif" stroke="none">StartFlag</text>
    </g>
    <g fill="url(#linearGradient3)" text-rendering="geometricPrecision" shape-rendering="geometricPrecision" transform="matrix(1,0,0,1,1264,-535)" stroke="url(#linearGradient3)">
      <path d="M-1159.4626 617.2114 L-1079.4626 617.2114 L-1079.4626 657.2114 L-1159.4626 657.2114 Z" stroke="none" clip-path="url(#clipPath2)"/>
    </g>
    <g text-rendering="geometricPrecision" stroke-miterlimit="1.45" shape-rendering="geometricPrecision" transform="matrix(1,0,0,1,1264,-535)" stroke-linecap="butt">
      <path fill="none" d="M-1159.4626 617.2114 L-1079.4626 617.2114 L-1079.4626 657.2114 L-1159.4626 657.2114 Z" clip-path="url(#clipPath2)"/>
      <text x="-1154.0359" xml:space="preserve" y="634.3813" clip-path="url(#clipPath2)" font-family="sans-serif" stroke="none">RCM Frame</text>
      <text x="-1135.1511" xml:space="preserve" y="648.3501" clip-path="url(#clipPath2)" font-family="sans-serif" stroke="none">Head</text>
    </g>
    <g fill="silver" text-rendering="geometricPrecision" shape-rendering="geometricPrecision" transform="matrix(1,0,0,1,1264,-535)" stroke="silver">
      <rect x="-1159.4626" width="60" height="30" y="702.9242" clip-path="url(#clipPath2)" stroke="none"/>
    </g>
    <g text-rendering="geometricPrecision" stroke-miterlimit="1.45" shape-rendering="geometricPrecision" transform="matrix(1,0,0,1,1264,-535)" stroke-linecap="butt">
      <rect fill="none" x="-1159.4626" width="60" height="30" y="702.9242" clip-path="url(#clipPath2)"/>
      <text x="-1137.3962" xml:space="preserve" y="722.0785" clip-path="url(#clipPath2)" font-family="sans-serif" stroke="none">1B</text>
    </g>
    <g text-rendering="geometricPrecision" stroke-miterlimit="1.45" stroke-dasharray="6,2" shape-rendering="geometricPrecision" transform="matrix(1,0,0,1,1264,-535)" stroke-linecap="butt">
      <path fill="none" d="M-1159.4626 577.2114 L-1079.4626 577.2114 L-1079.4626 617.2114 L-1159.4626 617.2114 Z" clip-path="url(#clipPath2)"/>
    </g>
    <g text-rendering="geometricPrecision" stroke-miterlimit="1.45" stroke-dasharray="6,2" shape-rendering="geometricPrecision" transform="matrix(1,0,0,1,1264,-535)" stroke-linecap="butt">
      <path fill="none" d="M-1160.4708 657.2045 L-1160.4708 702.9518" clip-path="url(#clipPath2)"/>
      <path fill="none" d="M-1082.734 657.2049 L-919.2973 702.9211" clip-path="url(#clipPath2)"/>
    </g>
  </g>
</svg>
