<?xml version="1.0" encoding="UTF-8"?><svg xmlns="http://www.w3.org/2000/svg" xmlns:xlink="http://www.w3.org/1999/xlink" fill-opacity="1" color-rendering="auto" color-interpolation="auto" text-rendering="auto" stroke="black" stroke-linecap="square" width="403" stroke-miterlimit="10" shape-rendering="auto" stroke-opacity="1" fill="black" stroke-dasharray="none" font-weight="normal" stroke-width="1" height="328" font-family="'Dialog'" font-style="normal" stroke-linejoin="miter" font-size="12px" stroke-dashoffset="0" image-rendering="auto">
  <!--Generated by ySVG 2.5-->
  <defs id="genericDefs"/>
  <g>
    <defs id="defs1">
      <linearGradient x1="269" gradientUnits="userSpaceOnUse" x2="359" y1="42" y2="82" id="linearGradient1" spreadMethod="reflect">
        <stop stop-opacity="1" stop-color="rgb(232,238,247)" offset="0%"/>
        <stop stop-opacity="1" stop-color="rgb(183,201,227)" offset="100%"/>
      </linearGradient>
      <linearGradient x1="126" gradientUnits="userSpaceOnUse" x2="216" y1="236" y2="276" id="linearGradient2" spreadMethod="reflect">
        <stop stop-opacity="1" stop-color="rgb(232,238,247)" offset="0%"/>
        <stop stop-opacity="1" stop-color="rgb(183,201,227)" offset="100%"/>
      </linearGradient>
      <linearGradient x1="409" gradientUnits="userSpaceOnUse" x2="499" y1="236" y2="276" id="linearGradient3" spreadMethod="reflect">
        <stop stop-opacity="1" stop-color="rgb(232,238,247)" offset="0%"/>
        <stop stop-opacity="1" stop-color="rgb(183,201,227)" offset="100%"/>
      </linearGradient>
      <linearGradient x1="131" gradientUnits="userSpaceOnUse" x2="211" y1="42" y2="82" id="linearGradient4" spreadMethod="reflect">
        <stop stop-opacity="1" stop-color="rgb(232,238,247)" offset="0%"/>
        <stop stop-opacity="1" stop-color="rgb(183,201,227)" offset="100%"/>
      </linearGradient>
      <clipPath clipPathUnits="userSpaceOnUse" id="clipPath1">
        <path d="M0 0 L403 0 L403 328 L0 328 L0 0 Z"/>
      </clipPath>
      <clipPath clipPathUnits="userSpaceOnUse" id="clipPath2">
        <path d="M111 -35 L514 -35 L514 293 L111 293 L111 -35 Z"/>
      </clipPath>
    </defs>
    <g fill="white" text-rendering="geometricPrecision" shape-rendering="geometricPrecision" transform="translate(-111,35)" stroke="white">
      <rect x="111" width="403" height="328" y="-35" clip-path="url(#clipPath2)" stroke="none"/>
    </g>
    <g fill="url(#linearGradient1)" text-rendering="geometricPrecision" shape-rendering="geometricPrecision" transform="matrix(1,0,0,1,-111,35)" stroke="url(#linearGradient1)">
      <rect x="269" y="42" clip-path="url(#clipPath2)" width="90" rx="20" ry="20" height="40" stroke="none"/>
    </g>
    <g text-rendering="geometricPrecision" stroke-miterlimit="1.45" shape-rendering="geometricPrecision" transform="matrix(1,0,0,1,-111,35)" stroke-linecap="butt">
      <rect x="269" y="42" clip-path="url(#clipPath2)" fill="none" width="90" rx="20" ry="20" height="40"/>
      <text x="273.1689" xml:space="preserve" y="66.1543" clip-path="url(#clipPath2)" font-family="sans-serif" stroke="none">Disconnected</text>
    </g>
    <g fill="url(#linearGradient2)" text-rendering="geometricPrecision" shape-rendering="geometricPrecision" transform="matrix(1,0,0,1,-111,35)" stroke="url(#linearGradient2)">
      <rect x="126" y="236" clip-path="url(#clipPath2)" width="90" rx="20" ry="20" height="40" stroke="none"/>
    </g>
    <g text-rendering="geometricPrecision" stroke-miterlimit="1.45" shape-rendering="geometricPrecision" transform="matrix(1,0,0,1,-111,35)" stroke-linecap="butt">
      <rect x="126" y="236" clip-path="url(#clipPath2)" fill="none" width="90" rx="20" ry="20" height="40"/>
      <text x="136.9131" xml:space="preserve" y="260.1543" clip-path="url(#clipPath2)" font-family="sans-serif" stroke="none">Connecting</text>
    </g>
    <g fill="url(#linearGradient3)" text-rendering="geometricPrecision" shape-rendering="geometricPrecision" transform="matrix(1,0,0,1,-111,35)" stroke="url(#linearGradient3)">
      <rect x="409" y="236" clip-path="url(#clipPath2)" width="90" rx="20" ry="20" height="40" stroke="none"/>
    </g>
    <g text-rendering="geometricPrecision" stroke-miterlimit="1.45" shape-rendering="geometricPrecision" transform="matrix(1,0,0,1,-111,35)" stroke-linecap="butt">
      <rect x="409" y="236" clip-path="url(#clipPath2)" fill="none" width="90" rx="20" ry="20" height="40"/>
      <text x="421.6914" xml:space="preserve" y="260.1543" clip-path="url(#clipPath2)" font-family="sans-serif" stroke="none">Connected</text>
    </g>
    <g fill="url(#linearGradient4)" text-rendering="geometricPrecision" shape-rendering="geometricPrecision" transform="matrix(1,0,0,1,-111,35)" stroke="url(#linearGradient4)">
      <circle r="20" clip-path="url(#clipPath2)" cx="171" cy="62" stroke="none"/>
    </g>
    <g text-rendering="geometricPrecision" stroke-miterlimit="1.45" shape-rendering="geometricPrecision" transform="matrix(1,0,0,1,-111,35)" stroke-linecap="butt">
      <circle fill="none" r="20" clip-path="url(#clipPath2)" cx="171" cy="62"/>
    </g>
    <g text-rendering="geometricPrecision" stroke-miterlimit="1.45" shape-rendering="geometricPrecision" transform="matrix(1,0,0,1,-111,35)" stroke-linecap="butt">
      <path fill="none" d="M338.045 42.0133 L338.5 37.5 L338.0023 32.5624 L336.5747 27.9635 L334.3158 23.8018 L331.3241 20.1759 L327.6982 17.1842 L323.5365 14.9253 L318.9376 13.4978 L314 13 L309.0624 13.4978 L304.4635 14.9253 L300.3018 17.1842 L296.6759 20.1759 L293.6842 23.8018 L291.4253 27.9635 L289.9977 32.5624 L289.8514 34.014 L289.8615 34.1134" clip-path="url(#clipPath2)"/>
    </g>
    <g text-rendering="geometricPrecision" stroke-miterlimit="1.45" shape-rendering="geometricPrecision" transform="matrix(1,0,0,1,-111,35)" stroke-linecap="butt">
      <path d="M289.9561 42.1129 L294.8138 30.0545 L289.8496 33.1135 L284.8145 30.1729 Z" stroke="none" clip-path="url(#clipPath2)"/>
      <text x="285.4795" xml:space="preserve" y="-6.5801" clip-path="url(#clipPath2)" font-family="sans-serif" stroke="none">Data Link</text>
      <text x="281.5625" xml:space="preserve" y="7.3887" clip-path="url(#clipPath2)" font-family="sans-serif" stroke="none">Create Fail</text>
      <path fill="none" d="M299.2496 82.011 L190.4785 229.5746" clip-path="url(#clipPath2)"/>
      <path d="M185.7318 236.0142 L196.8767 229.3215 L191.0719 228.7696 L188.8271 223.3881 Z" clip-path="url(#clipPath2)" stroke="none"/>
      <text x="165.523" xml:space="preserve" y="154.8504" clip-path="url(#clipPath2)" font-family="sans-serif" stroke="none">Data Link</text>
      <text x="159.526" xml:space="preserve" y="168.8191" clip-path="url(#clipPath2)" font-family="sans-serif" stroke="none">Established</text>
      <path fill="none" d="M207.0577 239.29 L215.2963 235.2222 L225.817 229.7153 L235.9688 224 L245.6778 218.0347 L254.8704 211.7778 L263.4727 205.1875 L271.4109 198.2222 L278.6113 190.8403 L285 183 L290.5279 174.6736 L295.2442 165.8889 L299.2227 156.6875 L302.537 147.1111 L305.2611 137.2014 L307.4688 127 L309.2336 116.5486 L310.6296 105.8889 L311.7305 95.0625 L312.139 89.9756 L312.1456 89.8759" clip-path="url(#clipPath2)"/>
      <path d="M312.7577 81.8993 L306.8542 93.4816 L312.0691 90.8729 L316.8249 94.2467 Z" clip-path="url(#clipPath2)" stroke="none"/>
      <text x="269.3781" xml:space="preserve" y="211.0827" clip-path="url(#clipPath2)" font-family="sans-serif" stroke="none">Link Broken</text>
      <text x="267.0372" xml:space="preserve" y="225.0515" clip-path="url(#clipPath2)" font-family="sans-serif" stroke="none">Or Login Fail</text>
      <path fill="none" d="M216.0133 256 L400.9998 256" clip-path="url(#clipPath2)"/>
      <path d="M408.9998 256 L396.9998 251 L399.9998 256 L396.9998 261 Z" clip-path="url(#clipPath2)" stroke="none"/>
      <text x="262.5664" xml:space="preserve" y="273.1543" clip-path="url(#clipPath2)" font-family="sans-serif" stroke="none">Successful Login</text>
      <path fill="none" d="M439.5591 235.989 L333.1042 88.473" clip-path="url(#clipPath2)"/>
      <path d="M328.4227 81.9858 L331.3905 94.6425 L333.6894 89.2839 L339.4995 88.7907 Z" clip-path="url(#clipPath2)" stroke="none"/>
      <text x="416.5431" xml:space="preserve" y="148.5188" clip-path="url(#clipPath2)" font-family="sans-serif" stroke="none">or Logout</text>
      <text x="401.7745" xml:space="preserve" y="162.4875" clip-path="url(#clipPath2)" font-family="sans-serif" stroke="none">or Link Broken</text>
      <text x="400.2833" xml:space="preserve" y="176.4563" clip-path="url(#clipPath2)" font-family="sans-serif" stroke="none">or Error Raised</text>
      <path fill="none" d="M191.0046 62 L260.9878 62" clip-path="url(#clipPath2)"/>
      <path d="M268.9878 62 L256.9878 57 L259.9878 62 L256.9878 67 Z" clip-path="url(#clipPath2)" stroke="none"/>
    </g>
  </g>
</svg>
